<?xml version="1.0" encoding="utf-8"?>
<!-- Generator: Adobe Illustrator 26.4.1, SVG Export Plug-In . SVG Version: 6.00 Build 0)  -->
<svg version="1.1" id="Calque_1" xmlns="http://www.w3.org/2000/svg" xmlns:xlink="http://www.w3.org/1999/xlink" x="0px" y="0px"
	 viewBox="0 0 355.3 385.5" style="enable-background:new 0 0 355.3 385.5;" xml:space="preserve">
<style type="text/css">
	.st0{fill:#FFFFFF;stroke:#FFFFFF;stroke-width:12;stroke-miterlimit:10;}
	.st1{fill:#1D1D1B;stroke:#FFFFFF;stroke-miterlimit:10;}
	.st2{fill:#FFFFFF;}
	.st3{fill:#CFA4CD;}
	.st4{fill:#C4C4C4;stroke:#FFFFFF;stroke-width:6;stroke-miterlimit:10;}
	.st5{fill:#D64D7F;}
	.st6{fill:none;stroke:#1D1D1B;stroke-miterlimit:10;}
	.st7{fill:#1D1D1B;}
</style>
<circle class="st0" cx="179" cy="178" r="117.2"/>
<g>
	<circle class="st1" cx="236.4" cy="154.9" r="22.4"/>
	<circle class="st2" cx="233.6" cy="148.2" r="6.5"/>
	<circle class="st2" cx="244" cy="165.7" r="3.9"/>
</g>
<g>
	<circle class="st1" cx="121.7" cy="154.9" r="22.4"/>
	<circle class="st2" cx="115.2" cy="148.2" r="6.5"/>
	<circle class="st2" cx="125.5" cy="166" r="3.9"/>
</g>
<path class="st3" d="M129,199.7l-49.6-13.6c-1.5-0.4-2.4-2-2-3.5l0,0c0.4-1.5,2-2.4,3.5-2l49.6,13.6c1.5,0.4,2.4,2,2,3.5l0,0
	C132.2,199.2,130.6,200.1,129,199.7z"/>
<path class="st3" d="M129,211.8l-49.6-13.6c-1.5-0.4-2.4-2-2-3.5l0,0c0.4-1.5,2-2.4,3.5-2l49.6,13.6c1.5,0.4,2.4,2,2,3.5l0,0
	C132.2,211.3,130.6,212.2,129,211.8z"/>
<path class="st3" d="M227.4,194.1l49.6-13.6c1.5-0.4,3.1,0.5,3.5,2l0,0c0.4,1.5-0.5,3.1-2,3.5L229,199.7c-1.5,0.4-3.1-0.5-3.5-2l0,0
	C225,196.1,225.9,194.5,227.4,194.1z"/>
<path class="st3" d="M227.5,206.2l49.6-13.6c1.5-0.4,3.1,0.5,3.5,2l0,0c0.4,1.5-0.5,3.1-2,3.5L229,211.8c-1.5,0.4-3.1-0.5-3.5-2l0,0
	C225,208.2,225.9,206.6,227.5,206.2z"/>
<path class="st4" d="M108.4,53c19.6,19.2,19.1,25.9,18.8,27.9c-0.9,6-5.4,8.1-31.9,26.1c-19.4,13.2-21.8,15.5-26.1,14.5
	C52.9,117.8,49.7,84,49,76.4c-1-10.5-4.6-47,13-54C72.9,18.1,86.5,31.6,108.4,53z"/>
<path class="st4" d="M246.9,53c-19.6,19.2-19.1,25.9-18.8,27.9c0.9,6,5.4,8.1,31.9,26.1c19.4,13.2,21.8,15.5,26.1,14.5
	c16.3-3.7,19.5-37.5,20.2-45.1c1-10.5,4.6-47-13-54C282.4,18.1,268.8,31.6,246.9,53z"/>
<path class="st5" d="M202,236.3c0,13.1-10.5,23.8-23.4,23.8s-23.4-10.7-23.4-23.8v-0.1h0.1c0.6,0,1.1-0.1,1.7-0.1
	c0.6-0.1,12.1-1.6,17.8-10.7c2.7-4.4,3.4-9.2,3.6-12.3c0-0.2,0-0.4,0.1-0.5c0.1,0,0.1,0,0.2,0c0.2,0,0.4,0,0.5,0c0,0.2,0,0.4,0,0.6
	c0,0.2,0,0.4,0,0.6c0.1,3.1,0.7,7.6,3.1,11.6c3.8,6.4,11.3,10.3,18.4,11c0.4,0,0.9,0.1,1.3,0.1H202L202,236.3z"/>
<path class="st6" d="M133.7,226c0.6,0.7,8.7,10.6,21.4,10.1h0.1c0.6,0,1.1-0.1,1.7-0.1c0.6-0.1,12.1-1.6,17.8-10.7
	c2.7-4.4,3.4-9.2,3.6-12.3c0-0.2,0-0.4,0.1-0.5c0.1-1.7,0.1-2.8,0.4-2.8c0.3,0,0.3,1.1,0.3,2.8c0,0.2,0,0.4,0,0.6c0,0.2,0,0.4,0,0.6
	c0.1,3.1,0.7,7.6,3.1,11.6c3.8,6.4,11.3,10.3,18.4,11c0.4,0,0.9,0.1,1.3,0.1h0.1c13.6,0.4,21.9-11.1,22.3-11.6"/>
<g>
	<g>
		<path class="st7" d="M36.8,290c0.1-0.6,0.3-1.3,0.5-2c0.2-0.7,0.5-1.4,0.9-2c0.4-0.6,0.8-1.1,1.4-1.5c0.6-0.4,1.3-0.6,2.1-0.5
			c0.8,0,1.5,0.3,2.2,0.9c0.6,0.5,1.2,1.2,1.7,1.7c0.5,0.5,1.2,1.5,1.7,2.9c0.5,1.4,1.1,3.2,1.6,5.4c0.5,2.1,1.1,4.6,1.8,7.3
			c0.6,2.7,1.3,5.7,2.1,8.7c0.8,3.1,1.6,6.3,2.5,9.6s2,6.7,3.2,10.1c0.2,0.5,0.4,1.1,0.7,1.8c0.3,0.7,0.5,1.4,0.8,2
			c0.3,0.6,0.5,1.2,0.8,1.6c0.2,0.5,0.4,0.7,0.5,0.7c0.1,0,0.2-0.2,0.3-0.6c0.1-0.4,0.2-0.9,0.4-1.5c0.1-0.6,0.3-1.2,0.4-1.8
			s0.3-1.1,0.4-1.5c0.5-1.2,1-2.7,1.5-4.3c0.6-1.6,1.2-3.6,1.9-6c0.7-2.4,1.5-5.3,2.3-8.6c0.9-3.4,1.8-7.4,2.9-12.2
			c0.3-1.2,0.5-2.5,0.9-4c0.3-1.5,0.6-3,0.9-4.6c0.3-1.6,0.5-3.1,0.8-4.6c0.2-1.5,0.4-2.8,0.5-3.9c0-0.2,0-0.5,0.1-1s0.1-1,0.2-1.6
			c0.1-0.6,0.2-1.2,0.3-1.8c0.1-0.6,0.2-1.2,0.4-1.7c0.2-0.5,0.4-1,0.6-1.3c0.2-0.3,0.5-0.5,0.9-0.5c0.3,0,0.7,0.1,1.2,0.2
			c0.5,0.1,0.9,0.3,1.3,0.6c0.4,0.8,0.8,1.8,1.1,3c0.3,1.2,0.5,2.7,0.4,4.7c0,1.2-0.2,2.7-0.4,4.4c-0.2,1.7-0.5,3.6-0.9,5.5
			s-0.7,4-1.1,6c-0.4,2-0.8,4-1.2,5.8c-0.4,1.9-0.8,3.5-1.2,5.1c-0.4,1.5-0.7,2.8-0.9,3.8c-0.5,1.7-0.9,3.5-1.4,5.3
			c-0.5,1.8-1.1,3.7-1.6,5.7s-1.2,4-1.9,6.2c-0.7,2.1-1.5,4.4-2.3,6.8c-0.4,1.1-0.8,2.1-1.3,3.2c-0.5,1-1,1.9-1.6,2.7
			c-0.6,0.8-1.3,1.3-2,1.6c-0.7,0.3-1.5,0.3-2.4,0c-0.5-0.2-1.1-0.5-1.6-0.9c-0.6-0.4-1-0.9-1.4-1.7c-1.8-3.4-3.4-7-4.7-10.9
			c-1.4-3.8-2.6-7.7-3.7-11.6c-1.1-3.9-2-7.7-2.8-11.5c-0.8-3.8-1.6-7.3-2.3-10.7c-0.1-0.4-0.1-0.6-0.2-0.9
			c-0.1-0.4-0.2-0.8-0.2-1.2c-0.1-0.4-0.1-0.8-0.2-1.1c-0.1-0.3-0.2-0.6-0.3-0.8c-0.1-0.2-0.2-0.3-0.4-0.3s-0.3,0.2-0.5,0.8
			c-0.2,0.5-0.4,1.2-0.6,1.8s-0.4,1.3-0.6,2c-0.2,0.6-0.3,1.1-0.4,1.2c-0.2,0.6-0.4,1.6-0.8,2.7c-0.3,1.2-0.7,2.5-1.1,4
			c-0.4,1.5-0.9,3-1.3,4.6s-0.9,3.1-1.4,4.6c-0.4,1.5-0.9,2.8-1.3,4c-0.4,1.2-0.7,2.2-1,2.9c-0.2,0.6-0.5,1.3-0.8,2.2
			c-0.3,0.9-0.6,1.8-0.9,2.6c-0.3,0.9-0.6,1.7-0.8,2.4c-0.2,0.7-0.4,1.2-0.5,1.4c-0.3,0.8-0.7,1.3-1.2,1.5c-0.5,0.2-1,0.2-1.6-0.1
			c-0.3-0.2-0.6-0.5-1-0.9s-0.6-0.8-0.9-1.3c-0.2-0.5-0.5-0.9-0.6-1.4c-0.2-0.5-0.2-0.9-0.2-1.2c0-0.2,0.1-0.4,0.2-0.8
			c0.1-0.4,0.3-0.9,0.5-1.8c0.3-1.3,0.5-1.9,0.9-3.2C30.5,310.5,32.6,304,36.8,290L36.8,290z"/>
		<path class="st7" d="M79.2,373.7c-0.4-0.1-0.7-0.4-0.9-0.7c-0.3-0.4-0.5-0.8-0.7-1.3c-0.2-0.5-0.3-1-0.4-1.5
			c-0.1-0.5-0.1-1-0.1-1.5c0-0.6,0.1-1.1,0.2-1.5c0.1-0.4,0.3-0.7,0.5-1c0.2-0.3,0.4-0.5,0.6-0.6c0.2-0.1,0.4-0.2,0.5-0.2
			c0.6,0,1.2,0,2,0.1c0.8,0,1.6,0,2.4-0.2s1.8-0.4,2.8-0.8c1-0.4,2-1,3.1-1.9c1.1-0.9,2.2-1.9,3.4-3.1c1.2-1.2,2.4-2.8,3.5-4.6
			c1.1-1.9,2.2-4,3.2-6.6c1-2.5,1.9-5.5,2.5-9c-0.5,0.6-1,1.4-1.6,2.2c-0.6,0.8-1.2,1.6-1.9,2.4c-0.7,0.8-1.4,1.6-2.1,2.3
			c-0.7,0.7-1.4,1.3-2.2,1.9c-0.7,0.5-1.4,0.9-2.1,1.2c-0.7,0.2-1.3,0.3-1.9,0.2c-1.6-0.4-2.9-1.2-3.9-2.5c-1.1-1.3-2-3.2-2.9-5.6
			c-0.2-0.7-0.4-1.6-0.5-2.7c-0.1-1.1-0.2-2.1-0.1-3.2c0-1.7,0.1-3.4,0.3-5c0.2-1.6,0.4-3.3,0.6-5c0.3-1.7,0.6-3.6,1-5.5
			s0.8-4,1.2-6.3c0-0.6,0.1-1.2,0.2-1.7c0.1-0.4,0.1-0.9,0.1-1.3c0-0.4,0.1-0.7,0.1-0.8c0.1-0.5,0.2-1.1,0.4-1.5
			c0.2-0.5,0.5-0.9,0.8-1.2c0.3-0.3,0.7-0.6,1-0.7c0.4-0.2,0.7-0.2,1.1-0.2c0.5,0.1,1,0.2,1.5,0.3c0.5,0.2,0.9,0.5,1.1,0.9
			c0.4,0.6,0.7,1.5,0.8,2.4c0.2,1,0.2,1.9,0.2,2.6c0,0.3-0.1,0.9-0.3,1.8c-0.2,0.9-0.5,1.8-0.9,2.7c-0.6,2.9-1.2,5.4-1.6,7.4
			s-0.7,3.7-0.9,5c-0.2,1.3-0.4,2.4-0.5,3.2c-0.1,0.8-0.2,1.4-0.2,1.8c0,1.8,0.1,3.2,0.5,4.4c0.4,1.1,0.9,1.8,1.5,1.9
			c0.4,0.1,0.8,0.1,1.2,0c0.5-0.1,1-0.3,1.5-0.7c2-1.3,3.7-2.9,5.2-4.8c1.5-1.8,2.7-4,3.8-6.4c1.1-2.4,2-5.1,2.8-8.1s1.6-6.3,2.2-10
			c0.1-0.2,0.2-0.5,0.4-0.7c0.2-0.2,0.4-0.4,0.6-0.6s0.5-0.3,0.8-0.4c0.3-0.1,0.6-0.1,0.8-0.1c1.2,0.1,2.2,0.7,2.8,1.7
			c0.6,1.1,1,2.4,0.9,4.1c0,0.6-0.1,1.6-0.4,3s-0.5,2.9-0.8,4.4c-0.3,1.5-0.6,3-1,4.4s-0.6,2.4-0.8,3c-0.7,2.8-1.1,4.3-1.9,7.1
			c-0.8,3.2-1.6,6.1-2.3,8.7c-0.7,2.6-1.4,5.1-2.2,7.3c-0.8,2.2-1.6,4.3-2.5,6.2c-0.9,1.9-2,3.7-3.3,5.3c-1.3,1.7-2.8,3.2-4.6,4.7
			c-1.8,1.5-3.9,2.9-6.2,4.2c-1.5,0.7-2.9,1.2-4.3,1.5C82.2,374.5,80.7,374.3,79.2,373.7L79.2,373.7z"/>
		<path class="st7" d="M135.5,360.6c0-1.1,0.1-2.3,0.3-3.8c0.2-1.5,0.3-3.3,0.3-5.5c-0.8,0.8-1.7,1.8-2.7,2.9c-1,1.1-2,2.1-3,3.1
			c-1,1-2.1,1.8-3.1,2.3c-1,0.6-2,0.8-2.9,0.7c-0.7-0.1-1.4-0.4-2-0.8c-0.6-0.4-1.2-0.9-1.6-1.5c-1.2-1.7-2.1-3.3-2.6-4.9
			c-0.5-1.6-0.8-3.4-0.7-5.4c0-0.9,0.1-1.8,0.2-2.7c0.1-0.9,0.3-2,0.5-3.2c1-5.5,2.6-10.5,4.9-15.2c2.3-4.6,5-8.6,8.3-11.9
			c1.3-1.3,2.5-2.1,3.8-2.4c1.3-0.3,2.5-0.5,3.7-0.4c0.5,0,1.1,0.1,1.8,0.2c0.7,0.1,1.3,0.3,1.8,0.4c0.5-0.2,1-0.3,1.3-0.3
			c0.3-0.1,0.7-0.1,1.1-0.1c0.7,0,1.3,0.2,1.8,0.5c0.5,0.3,0.8,0.7,1.1,1.2c0.3,0.5,0.5,1.1,0.6,1.8c0.1,0.7,0.2,1.3,0.2,2
			c0,1-0.1,1.9-0.3,2.8c-0.2,0.9-0.4,1.8-0.6,2.6c-2,11.7-3,17.5-5,29.1c-0.1,1.6-0.2,3-0.3,4.4c-0.1,1.3-0.2,2.6-0.5,3.7
			c-0.1,0.3-0.2,0.7-0.3,1.2c-0.1,0.5-0.3,0.9-0.5,1.4c-0.2,0.4-0.5,0.8-0.9,1.1c-0.4,0.3-0.8,0.4-1.4,0.4c-0.7-0.1-1.3-0.2-1.8-0.4
			c-0.4-0.2-0.8-0.5-1-0.8c-0.2-0.3-0.4-0.6-0.5-1.1C135.4,361.6,135.4,361.1,135.5,360.6L135.5,360.6z M123.9,342.7
			c-0.1,0.5-0.2,1.2-0.3,2.1c-0.1,0.9-0.2,1.9-0.2,2.8c0,1,0.1,1.9,0.2,2.7c0.2,0.8,0.6,1.2,1.2,1.3c1,0.1,1.9-0.1,2.8-0.6
			c0.9-0.6,1.7-1.3,2.5-2.1c1-1.2,2.1-2.5,3.2-4c1.1-1.5,2.1-3.1,3.1-4.8c1-1.7,1.8-3.4,2.6-5.2c0.8-1.8,1.3-3.6,1.7-5.5
			c0.2-1.1,0.4-2.3,0.5-3.7c0.1-1.4,0.2-2.7,0.2-3.8c0-0.5-0.1-1-0.2-1.4c-0.1-0.5-0.4-0.7-0.8-0.7c-1.2-0.1-2.3,0.2-3.5,0.9
			c-1.2,0.6-2.3,1.5-3.4,2.6c-1.1,1.1-2.2,2.4-3.2,3.9c-1,1.5-1.9,3.1-2.8,4.8c-0.8,1.7-1.6,3.5-2.2,5.3
			C124.7,339.1,124.2,340.9,123.9,342.7L123.9,342.7z"/>
		<path class="st7" d="M179.2,318.8c-0.8,0-1.7,0.3-2.7,0.9s-1.9,1.5-2.9,2.5c-1,1.1-2.1,2.3-3.1,3.6c-1.1,1.3-2.1,2.7-3.1,4.1
			c-0.5,0.7-1,1.3-1.5,1.9c-0.5,0.6-1,1-1.4,1.3c-0.3,0.9-0.7,2-1.1,3.4c-0.4,1.4-0.7,2.9-1.1,4.6c-0.4,1.7-0.7,3.4-1.1,5.1
			c-0.3,1.7-0.6,3.4-0.8,4.9c-0.1,0.8-0.2,1.6-0.3,2.3c-0.1,0.8-0.2,1.5-0.3,2.4c-0.1,0.8-0.2,1.8-0.4,2.7c-0.1,1-0.3,2.1-0.5,3.3
			c-0.1,0.7-0.3,1.3-0.6,1.7c-0.3,0.4-0.5,0.7-0.8,0.9c-0.3,0.2-0.6,0.3-0.8,0.4c-0.3,0-0.5,0.1-0.6,0.1c-0.9-0.1-1.7-0.4-2.2-1.2
			c-0.6-0.7-0.9-2-0.8-4c0-0.5,0-1.1,0.1-1.7c0-0.6,0.1-1.2,0.2-1.9c0.6-3.5,1.1-6.7,1.6-9.5c0.5-2.8,1-5.4,1.5-7.9
			c0.5-2.4,1-4.7,1.6-6.8s1.1-4.3,1.6-6.5c0.5-2.2,1.1-4.4,1.7-6.8s1.2-4.9,1.9-7.8c0.1-0.6,0.5-1.2,1.1-1.6
			c0.6-0.4,1.2-0.6,1.9-0.6c0.9,0,1.6,0.3,2.2,1c0.6,0.6,0.9,1.6,0.9,2.8c0,0.1,0,0.3-0.1,0.6s-0.1,0.6-0.2,1
			c-0.6,2.4-0.9,3.5-1.6,5.9c1-1.2,2-2.5,3.1-3.7c1.1-1.2,2.2-2.4,3.3-3.4c1.1-1,2.3-1.8,3.4-2.5c1.1-0.6,2.3-0.9,3.4-1
			c2.3,0,4,0.9,5.3,2.9c1.3,1.9,1.9,4.9,2,9c0,2.3-0.2,5-0.7,8s-1.1,6.2-1.9,9.7c-0.8,3.4-1.6,7-2.5,10.8s-1.7,7.6-2.5,11.5
			c-0.2,1.1-0.4,2-0.7,2.7c-0.2,0.7-0.5,1.3-0.8,1.7c-0.3,0.4-0.7,0.8-1.1,0.9c-0.4,0.2-0.9,0.3-1.5,0.3c-0.9,0-1.6-0.3-2-0.8
			c-0.4-0.5-0.5-1.4-0.5-2.6c0-1.1,0.1-2.4,0.3-3.9c0.2-1.5,0.5-3.2,0.9-5c0.4-1.8,0.8-3.8,1.3-5.9s1-4.2,1.6-6.4
			c0.5-1.7,0.9-3.5,1.3-5.2c0.4-1.7,0.8-3.4,1.2-5.1c0.3-1.6,0.6-3.2,0.8-4.7c0.2-1.5,0.3-2.8,0.3-4.1c0-1.2-0.2-2.2-0.5-3.1
			C180.7,319.2,180.1,318.8,179.2,318.8L179.2,318.8z"/>
		<path class="st7" d="M194.4,354.6c0.4-2.2,0.8-4.8,1.2-7.7c0.5-2.9,1-6,1.5-9.3s1.1-6.6,1.6-10c0.5-3.4,1-6.7,1.5-9.9
			c0-0.2,0.1-0.4,0.2-0.8c0.1-0.4,0.3-0.7,0.6-1.1c0.3-0.4,0.6-0.7,1-1c0.4-0.3,0.9-0.4,1.4-0.5c0.4,0,0.8,0,1.2,0.1
			c0.4,0.1,0.7,0.3,1,0.5c0.3,0.2,0.5,0.6,0.7,1c0.2,0.4,0.3,0.9,0.3,1.5c0,0.1,0,0.2,0,0.4c0,0.1,0,0.2,0,0.4
			c-0.4,2.4-0.6,3.6-0.9,6c-1,6.7-2.1,13.5-3.2,20.2c-1.1,6.8-2.2,13.6-3.2,20.4c-0.1,0.2-0.1,0.5-0.2,0.9c-0.1,0.4-0.2,0.7-0.4,1
			c-0.2,0.4-0.4,0.6-0.6,0.9c-0.2,0.2-0.5,0.4-0.9,0.4c-0.6,0-1.2-0.1-1.7-0.5c-0.5-0.4-0.9-0.8-1.2-1.4c-0.3-0.6-0.6-1.2-0.8-1.9
			c-0.2-0.7-0.3-1.4-0.3-2c0-0.2,0-0.4,0-0.5c0-0.2,0-0.3,0.1-0.5C193.7,358.6,193.9,357.3,194.4,354.6L194.4,354.6z M203.1,295.9
			c0.1-0.8,0.3-1.8,0.6-2.9c0.3-1.1,0.8-2.2,1.6-3.1c0.4-0.4,0.8-0.7,1.4-0.9c0.5-0.3,0.9-0.4,1.2-0.4s0.5,0.1,0.7,0.4
			c0.2,0.3,0.5,0.5,0.7,0.8c0.2,0.4,0.5,1.1,0.7,1.2c0.2,0.2,1,0.4,1.2,1c0.2,0.6,0.3,1.3,0.3,2.1c0,0.6,0,1.1-0.1,1.6
			c-0.1,0.5-0.1,0.9-0.2,1.2c-0.1,0.8-0.4,1.5-0.8,2.2c-0.4,0.7-0.8,1.2-1.3,1.7s-1.1,0.9-1.6,1.1c-0.6,0.3-1.1,0.4-1.5,0.4
			c-0.5,0-1-0.1-1.3-0.4c-0.3-0.3-0.7-0.9-1.1-1.9c-0.3-0.6-0.4-1-0.5-1.3c0-0.3-0.1-0.6-0.1-0.8c0-0.4,0-0.8,0-1.1
			C203,296.5,203.1,296.2,203.1,295.9L203.1,295.9z"/>
		<path class="st7" d="M213.1,359.8c0.7-4.4,1.3-8.5,1.9-12.3c0.6-3.8,1.2-7.4,1.8-10.9c0.6-3.5,1.1-6.8,1.7-10.1
			c0.5-3.3,1.1-6.5,1.5-9.9c0.2-1.3,0.3-2.6,0.3-3.7s0.1-2.4,0.3-3.7c0.1-0.4,0.2-0.9,0.5-1.2c0.2-0.4,0.5-0.7,0.8-0.9
			c0.3-0.3,0.6-0.5,1-0.7c0.3-0.2,0.7-0.3,1-0.3c0.7,0,1.2,0.1,1.6,0.3c0.4,0.2,0.8,0.5,1.1,0.9c0.3,0.4,0.5,0.9,0.6,1.4
			c0.1,0.6,0.2,1.2,0.2,1.9c0,1.2-0.1,2.5-0.3,3.8c-0.2,1.3-0.5,2.7-0.9,4.2c1.1-1.4,2.2-2.8,3.3-4.1c1.1-1.3,2.3-2.4,3.5-3.4
			c1.2-1,2.5-1.8,3.7-2.4c1.3-0.6,2.6-1,4-1.1c0.6-0.1,1.3,0.1,1.9,0.3s1.2,0.7,1.7,1.3c0.5,0.6,1,1.4,1.3,2.4
			c0.4,1,0.6,2.2,0.7,3.7c1-1.1,2-2.2,3-3.4c1.1-1.1,2.1-2.2,3.2-3.1c1.1-0.9,2.2-1.7,3.3-2.3c1.1-0.6,2.2-0.9,3.2-1.1
			c1.6-0.2,2.9,0,3.9,0.5s1.9,1.2,2.5,2.1c0.6,0.9,1.1,2,1.3,3.2s0.4,2.6,0.5,4c0,1.6,0,3.2-0.2,4.9c-0.2,1.7-0.4,3.3-0.6,4.9
			c-0.6,3.9-1.2,7.7-2,11.3c-0.8,3.6-1.6,7.3-2.5,11.1c-0.2,0.9-0.4,1.8-0.7,2.8c-0.2,1-0.5,1.9-0.8,2.8c-0.3,0.9-0.7,1.6-1.1,2.3
			c-0.4,0.6-1,1-1.6,1.2c-1.4,0.3-2.3,0.2-2.9-0.3c-0.5-0.6-0.8-1.5-0.8-2.7c0-0.3,0-0.7,0-1.2s0.1-0.9,0.1-1.3
			c0.1-0.5,0.3-1.3,0.6-2.4c0.3-1.1,0.6-2.2,1-3.4c0.4-1.2,0.7-2.4,1.1-3.6c0.4-1.2,0.6-2.3,0.8-3.2c0.3-1.5,0.6-3.3,0.9-5.3
			c0.4-2,0.7-4,1-6c0.3-2,0.6-3.9,0.8-5.7c0.2-1.8,0.3-3.2,0.3-4.3c0-0.5-0.1-1-0.1-1.5c-0.1-0.5-0.2-0.9-0.4-1.3
			c-0.2-0.4-0.4-0.6-0.8-0.8c-0.3-0.2-0.7-0.3-1.2-0.2c-0.7,0.1-1.5,0.5-2.5,1.2c-1,0.7-1.9,1.6-3,2.7c-1,1.1-2,2.3-3,3.6
			c-1,1.3-1.8,2.6-2.5,3.9c-0.5,0.9-0.9,1.6-1.4,2.2c-0.4,0.6-0.9,1.1-1.3,1.4c-0.1,0.1-0.2,0.6-0.3,1.4c-0.2,0.8-0.4,1.8-0.6,2.9
			c-0.2,1.1-0.5,2.4-0.7,3.7c-0.3,1.3-0.5,2.6-0.7,3.7c-0.2,1.2-0.4,2.1-0.6,2.9c-0.1,0.8-0.2,1.2-0.2,1.3c-0.1,1-0.3,2.1-0.4,3.1
			c-0.1,1.1-0.2,2.1-0.3,3.1c-0.1,1-0.1,2-0.2,3.1c-0.1,1.1-0.2,2.1-0.4,3.1c-0.2,1-0.6,1.8-1.1,2.5c-0.5,0.7-1.2,1.1-2.1,1.3
			c-0.5,0.1-0.9,0-1.3-0.3c-0.4-0.3-0.8-0.7-1-1.2c-0.3-0.5-0.5-1.1-0.7-1.8c-0.2-0.7-0.3-1.4-0.3-2.1c0.5-3.3,1-6.3,1.4-9
			c0.5-2.7,0.9-5.2,1.4-7.6c0.5-2.4,0.9-4.9,1.3-7.3c0.4-2.4,0.9-5.1,1.3-8c0.1-0.7,0.2-1.4,0.2-2s0.1-1.2,0.1-1.7
			c0-0.9-0.2-1.5-0.4-2.1c-0.2-0.5-0.7-0.8-1.2-0.7c-1,0.1-1.9,0.5-2.9,1.2c-0.9,0.7-1.9,1.7-3,3.1c-1.1,1.4-2.3,3.1-3.6,5.2
			c-1.3,2.1-2.8,4.6-4.6,7.5c-0.2,0.6-0.4,1.6-0.7,3.2c-0.3,1.5-0.6,3.2-0.9,4.9c-0.3,1.7-0.6,3.3-0.8,4.8c-0.2,1.5-0.4,2.5-0.5,2.9
			c-0.2,1.6-0.4,2.9-0.5,4c-0.1,1.1-0.1,2-0.2,2.9c0,0.4-0.1,1.2-0.2,2.2c-0.1,1-0.2,2.1-0.5,3.1c-0.2,1.1-0.6,2-1,2.9
			c-0.4,0.8-1,1.3-1.8,1.4c-1.1,0.1-2-0.2-2.7-1.1c-0.7-0.8-1.1-2-1.1-3.4c0-0.3,0-0.5,0-0.7C213.1,360.3,213.1,360,213.1,359.8
			L213.1,359.8z"/>
		<path class="st7" d="M292,343.5c0-0.9,0-1.9,0.2-3.2c0.1-1.3,0.2-2.8,0.1-4.6c-0.7,0.9-1.5,2.1-2.4,3.3c-0.9,1.3-1.8,2.5-2.8,3.8
			c-1,1.2-1.9,2.3-2.9,3.3c-1,0.9-1.9,1.6-2.7,1.8c-0.7,0.2-1.3,0.3-2,0.2c-0.6-0.1-1.2-0.3-1.6-0.6c-1.3-1-2.2-2.1-2.7-3.3
			c-0.6-1.2-0.9-2.7-0.9-4.5c0-0.8,0-1.6,0.1-2.5c0.1-0.9,0.2-1.9,0.4-3.1c0.8-5.3,2.1-10.3,4.2-14.9c2-4.6,4.6-8.6,7.7-12
			c1.2-1.3,2.4-2.2,3.6-2.7c1.2-0.5,2.4-0.8,3.6-1c0.5-0.1,1.1-0.1,1.8-0.1c0.6,0,1.2,0,1.8,0c0.5-0.2,1-0.4,1.3-0.5
			c0.3-0.1,0.7-0.2,1.1-0.3c0.7-0.1,1.3-0.1,1.7,0.1c0.5,0.1,0.8,0.4,1.1,0.7c0.3,0.3,0.5,0.7,0.6,1.2c0.1,0.5,0.2,1,0.2,1.5
			c0,0.7-0.1,1.4-0.2,2.1c-0.2,0.7-0.3,1.4-0.5,2.1c-1.6,9.2-2.4,14-4,23.6c-0.1,1.3-0.1,2.4-0.2,3.5c0,1.1-0.2,2.1-0.4,3
			c-0.1,0.3-0.1,0.6-0.2,1.1c-0.1,0.4-0.2,0.9-0.5,1.3c-0.2,0.4-0.5,0.9-0.8,1.3s-0.8,0.7-1.3,0.9c-0.7,0.3-1.3,0.4-1.7,0.5
			c-0.4,0-0.8,0-1-0.2s-0.4-0.4-0.5-0.6C292,344.2,291.9,343.9,292,343.5L292,343.5z M280.2,333.1c-0.1,0.5-0.2,1.1-0.2,2
			c-0.1,0.8-0.1,1.7-0.1,2.5c0,0.8,0.1,1.6,0.3,2.2c0.2,0.6,0.6,0.8,1.2,0.7c1-0.3,1.9-0.8,2.7-1.6c0.8-0.8,1.6-1.7,2.3-2.7
			c1-1.3,1.9-2.8,2.9-4.4c1-1.6,1.9-3.2,2.8-4.9c0.9-1.7,1.6-3.3,2.3-5c0.7-1.7,1.1-3.2,1.4-4.8c0.2-0.9,0.3-1.9,0.4-3
			c0.1-1.1,0.1-2.1,0.1-3c0-0.4-0.1-0.7-0.2-1.1c-0.1-0.3-0.4-0.5-0.8-0.4c-1.1,0.2-2.2,0.7-3.4,1.5c-1.1,0.8-2.2,1.8-3.2,2.9
			s-2,2.5-2.9,4c-0.9,1.5-1.8,3.1-2.5,4.8c-0.7,1.7-1.4,3.4-1.9,5.2C280.9,329.7,280.5,331.4,280.2,333.1L280.2,333.1z"/>
		<path class="st7" d="M318.8,282.6c0.1-1,0.3-1.9,0.5-2.8c0.2-0.9,0.6-1.6,1-2.2c0.4-0.6,1-0.9,1.6-0.9c0.4,0,0.8,0.1,1.2,0.2
			c0.5,0.1,0.9,0.3,1.3,0.6c0.4,0.2,0.8,0.5,1,0.9c0.3,0.4,0.4,0.7,0.4,1.2c0,0.2,0,0.4-0.1,0.7c-0.1,0.3-0.1,0.5-0.2,0.7
			c-3.1,12.8-5.8,25.8-8.3,38.7c-0.3,1.6-0.6,3.2-0.8,4.7c-0.2,1.5-0.4,2.7-0.5,3.6c0,0.4,0,0.6,0,0.9c0,0.8,0,1.6-0.1,2.6
			c-0.1,0.9-0.2,1.9-0.5,2.8c-0.2,0.9-0.6,1.7-1,2.4c-0.4,0.7-1,1.2-1.7,1.6c-0.6,0.3-1.1,0.4-1.6,0.2c-0.4-0.1-0.8-0.4-1.1-0.7
			s-0.5-0.8-0.7-1.3c-0.1-0.5-0.2-1-0.2-1.5c0-0.4,0-1,0.1-1.6c0.1-0.7,0.1-1.3,0.2-2.1c0.1-0.7,0.2-1.5,0.3-2.2
			c0.1-0.7,0.2-1.4,0.3-1.9c2.6-14,5.3-27.9,8.3-41.8C318.6,284.5,318.6,283.5,318.8,282.6L318.8,282.6z"/>
	</g>
	<path class="st7" d="M212.1,294.2c0.1,0.4,0.9,4.9-1.7,6.9c-1.1,0.9-2.5,1-4.4,1.1c-2,0.1-3.4,0.2-4.6-0.6
		c-2.6-1.9-1.4-7.1-1.3-7.4c0.3-1,1.9-6.8,5.9-6.8C209.4,287.5,211.5,291.5,212.1,294.2L212.1,294.2z"/>
	
		<ellipse transform="matrix(0.9837 -0.1797 0.1797 0.9837 -49.0417 39.8487)" class="st7" cx="195.5" cy="290.7" rx="3.6" ry="4.6"/>
	
		<ellipse transform="matrix(0.9985 -5.512445e-02 5.512445e-02 0.9985 -15.2261 11.6402)" class="st7" cx="203.4" cy="281.8" rx="3.6" ry="4.6"/>
	
		<ellipse transform="matrix(9.827767e-02 -0.9952 0.9952 9.827767e-02 -90.5001 466.3664)" class="st7" cx="212.1" cy="283.1" rx="4.6" ry="3.6"/>
	<ellipse transform="matrix(0.1482 -0.989 0.989 0.1482 -103.9582 463.4417)" class="st7" cx="217" cy="292.1" rx="4.6" ry="3.6"/>
</g>
</svg>
